# xmcd CD database file
#
# Track frame offsets:
#	150
#	16000
#	36935
#	49838
#	59767
#	76921
#	90648
#	107522
#	124317
#	132473
#	150180
#	160081
#	175290
#
# Disc length: 2557 seconds
#
# Revision: 1
# Processed by: cddbd v1.5.1PL2 Copyright (c) Steve Scherf et al.
# Submitted via: CDex 1.51
#
DISCID=9f09fb0d
DTITLE=Charley Groth - Grandpa Flatpicked
DYEAR=2003
DGENRE=Country
TTITLE0=Charley Group =My Rough And Rowdy Ways
TTITLE1=Charley Group =St James Infirmary Blues
TTITLE2=Charley Group =Grandpa Flatpicked
TTITLE3=Charley Group =Ashokan Farewell
TTITLE4=Gharley Group =Black Night
TTITLE5=Charley Group =Cactus Stomp
TTITLE6=Charley Group =Barroom Girls
TTITLE7=Charley Group =Ain't Misbehavin'
TTITLE8=Charley Group =All American Ride
TTITLE9=Charley Group =Florida Moon
TTITLE10=Charley Group =March Of The 10,000 Autoharpers
TTITLE11=Charley Group =Country Pickin'
TTITLE12=Charley Group =Franky And Johnny
EXTD=YEAR: 2003
EXTT0=
EXTT1=
EXTT2=
EXTT3=
EXTT4=
EXTT5=
EXTT6=
EXTT7=
EXTT8=
EXTT9=
EXTT10=
EXTT11=
EXTT12=
PLAYORDER=
